<svg width="81" height="80" viewBox="0 0 81 80" fill="none" xmlns="http://www.w3.org/2000/svg">
<g clip-path="url(#clip0_2390_10812)">
<path d="M8.91406 57.9701L19.6871 41.803" stroke="#FEECE6" stroke-width="1.25" stroke-miterlimit="10" stroke-linecap="round" stroke-linejoin="round"/>
<path d="M19.6869 38.1692L8.91016 22.0059" stroke="#FEECE6" stroke-width="1.25" stroke-miterlimit="10" stroke-linecap="round" stroke-linejoin="round"/>
<path d="M32.8901 22.0059L22.1133 38.1692" stroke="#FEECE6" stroke-width="1.25" stroke-miterlimit="10" stroke-linecap="round" stroke-linejoin="round"/>
<path d="M58.6878 27.7717L49.1211 21.3989" stroke="#FEECE6" stroke-width="1.25" stroke-miterlimit="10" stroke-linecap="round" stroke-linejoin="round"/>
<path d="M58.8279 30.3813L48.9805 38.5901" stroke="#FEECE6" stroke-width="1.25" stroke-miterlimit="10" stroke-linecap="round" stroke-linejoin="round"/>
<path d="M46.0893 38.1692L35.3125 22.0059" stroke="#FEECE6" stroke-width="1.25" stroke-miterlimit="10" stroke-linecap="round" stroke-linejoin="round"/>
<path d="M45.116 20.1851L36.2852 20.1883" stroke="#FEECE6" stroke-width="1.25" stroke-miterlimit="10" stroke-linecap="round" stroke-linejoin="round"/>
<path d="M58.8279 49.5906L48.9805 41.3818" stroke="#FEECE6" stroke-width="1.25" stroke-miterlimit="10" stroke-linecap="round" stroke-linejoin="round"/>
<path d="M46.0894 41.803L35.3164 57.9701" stroke="#FEECE6" stroke-width="1.25" stroke-miterlimit="10" stroke-linecap="round" stroke-linejoin="round"/>
<path d="M62.3203 52.2004L71.887 58.5732" stroke="#FEECE6" stroke-width="1.25" stroke-miterlimit="10" stroke-linecap="round" stroke-linejoin="round"/>
<path d="M32.8863 57.9701L22.1133 41.803" stroke="#FEECE6" stroke-width="1.25" stroke-miterlimit="10" stroke-linecap="round" stroke-linejoin="round"/>
<path d="M45.116 59.7871H36.2852" stroke="#FEECE6" stroke-width="1.25" stroke-miterlimit="10" stroke-linecap="round" stroke-linejoin="round"/>
<path d="M71.887 21.3989L62.3203 27.7717" stroke="#FEECE6" stroke-width="1.25" stroke-miterlimit="10" stroke-linecap="round" stroke-linejoin="round"/>
<path d="M72.0271 41.3818L62.1797 49.5906" stroke="#FEECE6" stroke-width="1.25" stroke-miterlimit="10" stroke-linecap="round" stroke-linejoin="round"/>
<path d="M72.0271 38.5901L62.1797 30.3813" stroke="#FEECE6" stroke-width="1.25" stroke-miterlimit="10" stroke-linecap="round" stroke-linejoin="round"/>
<path d="M58.6878 52.2004L49.1211 58.5732" stroke="#FEECE6" stroke-width="1.25" stroke-miterlimit="10" stroke-linecap="round" stroke-linejoin="round"/>
<path d="M23.0847 39.986C23.0864 40.4734 22.925 40.9473 22.6262 41.3325C22.3275 41.7176 21.9085 41.9918 21.436 42.1114C20.9635 42.231 20.4646 42.1892 20.0186 41.9927C19.5726 41.7961 19.2051 41.456 18.9746 41.0265C18.7441 40.5971 18.6638 40.1028 18.7465 39.6225C18.8293 39.1422 19.0702 38.7033 19.4311 38.3756C19.792 38.048 20.252 37.8504 20.7381 37.8143C21.2242 37.7783 21.7084 37.9058 22.1136 38.1766C22.4114 38.3755 22.6557 38.6445 22.825 38.9601C22.9943 39.2756 23.0835 39.6279 23.0847 39.986Z" stroke="#FEECE6" stroke-width="1.25" stroke-miterlimit="10" stroke-linecap="round" stroke-linejoin="round"/>
<path d="M49.4871 20.1849C49.4871 20.6171 49.3589 21.0395 49.1189 21.3988C48.8788 21.7582 48.5375 22.0382 48.1383 22.2036C47.739 22.3689 47.2997 22.4122 46.8759 22.3279C46.452 22.2436 46.0627 22.0355 45.7571 21.7299C45.4516 21.4244 45.2435 21.035 45.1592 20.6112C45.0749 20.1874 45.1181 19.7481 45.2835 19.3488C45.4489 18.9496 45.7289 18.6083 46.0882 18.3682C46.4476 18.1281 46.87 18 47.3021 18C47.5892 17.9995 47.8736 18.0557 48.1389 18.1653C48.4042 18.2749 48.6453 18.4359 48.8482 18.6388C49.0512 18.8418 49.2122 19.0829 49.3218 19.3482C49.4314 19.6135 49.4876 19.8979 49.4871 20.1849Z" stroke="#F24500" stroke-width="1.25" stroke-miterlimit="10" stroke-linecap="round" stroke-linejoin="round"/>
<path d="M49.4874 39.986C49.4854 40.5648 49.2546 41.1194 48.8452 41.5287C48.4359 41.9381 47.8813 42.1689 47.3025 42.1709C46.9344 42.1716 46.5722 42.0794 46.2493 41.9027C45.9265 41.726 45.6535 41.4706 45.4557 41.1603C45.2579 40.8499 45.1417 40.4946 45.1179 40.1274C45.094 39.7601 45.1634 39.3928 45.3195 39.0595C45.4755 38.7262 45.7132 38.4377 46.0106 38.2208C46.3079 38.0039 46.6552 37.8656 47.0202 37.8188C47.3853 37.772 47.7562 37.8181 48.0987 37.9529C48.4411 38.0878 48.744 38.3069 48.9791 38.59C49.309 38.9802 49.4892 39.4751 49.4874 39.986Z" stroke="#F24500" stroke-width="1.25" stroke-miterlimit="10" stroke-linecap="round" stroke-linejoin="round"/>
<path d="M62.6863 50.9867C62.6863 51.5662 62.4561 52.1219 62.0463 52.5317C61.6366 52.9414 61.0808 53.1716 60.5014 53.1716C59.9219 53.1716 59.3661 52.9414 58.9564 52.5317C58.5466 52.1219 58.3164 51.5662 58.3164 50.9867C58.3164 50.4072 58.5466 49.8515 58.9564 49.4417C59.3661 49.032 59.9219 48.8018 60.5014 48.8018C61.0808 48.8018 61.6366 49.032 62.0463 49.4417C62.4561 49.8515 62.6863 50.4072 62.6863 50.9867Z" stroke="#F24500" stroke-width="1.25" stroke-miterlimit="10" stroke-linecap="round" stroke-linejoin="round"/>
<path d="M9.86989 20.1886C9.86989 20.6208 9.74175 21.0432 9.50166 21.4025C9.26158 21.7618 8.92034 22.0419 8.52109 22.2072C8.12184 22.3726 7.68252 22.4159 7.25869 22.3316C6.83485 22.2473 6.44553 22.0392 6.13996 21.7336C5.83439 21.428 5.62629 21.0387 5.54198 20.6149C5.45768 20.191 5.50095 19.7517 5.66632 19.3525C5.83169 18.9532 6.11174 18.612 6.47106 18.3719C6.83037 18.1318 7.25281 18.0037 7.68495 18.0037C7.97216 18.0027 8.25673 18.0585 8.52227 18.168C8.78782 18.2774 9.02908 18.4383 9.23217 18.6414C9.43526 18.8445 9.59617 19.0858 9.70562 19.3513C9.81506 19.6168 9.8709 19.9014 9.86989 20.1886Z" stroke="#FEECE6" stroke-width="1.25" stroke-miterlimit="10" stroke-linecap="round" stroke-linejoin="round"/>
<path d="M9.8699 59.7985C9.86984 60.2856 9.70702 60.7587 9.40731 61.1426C9.1076 61.5266 8.68817 61.7994 8.21567 61.9177C7.74317 62.0361 7.24468 61.9931 6.79938 61.7957C6.35409 61.5982 5.98754 61.2577 5.75795 60.8281C5.52836 60.3985 5.44889 59.9045 5.53218 59.4246C5.61547 58.9447 5.85674 58.5064 6.21766 58.1793C6.57857 57.8522 7.03844 57.655 7.52421 57.6192C8.00998 57.5834 8.4938 57.7109 8.89881 57.9815C9.19761 58.1811 9.44256 58.4514 9.61195 58.7683C9.78134 59.0853 9.86994 59.4391 9.8699 59.7985Z" stroke="#FEECE6" stroke-width="1.25" stroke-miterlimit="10" stroke-linecap="round" stroke-linejoin="round"/>
<path d="M36.2879 20.1889C36.2879 20.621 36.1597 21.0434 35.9196 21.4028C35.6795 21.7621 35.3383 22.0421 34.9391 22.2075C34.5398 22.3729 34.1005 22.4161 33.6767 22.3318C33.2528 22.2475 32.8635 22.0394 32.5579 21.7339C32.2524 21.4283 32.0443 21.039 31.96 20.6151C31.8756 20.1913 31.9189 19.752 32.0843 19.3527C32.2497 18.9535 32.5297 18.6122 32.889 18.3721C33.2483 18.1321 33.6708 18.0039 34.1029 18.0039C34.3901 18.0029 34.6747 18.0587 34.9402 18.1682C35.2058 18.2776 35.447 18.4385 35.6501 18.6416C35.8532 18.8447 36.0141 19.086 36.1236 19.3515C36.233 19.6171 36.2889 19.9017 36.2879 20.1889Z" stroke="#FEECE6" stroke-width="1.25" stroke-miterlimit="10" stroke-linecap="round" stroke-linejoin="round"/>
<path d="M36.2879 59.7985C36.2878 60.2856 36.125 60.7587 35.8253 61.1426C35.5256 61.5266 35.1061 61.7994 34.6336 61.9177C34.1611 62.0361 33.6626 61.9931 33.2174 61.7957C32.7721 61.5982 32.4055 61.2577 32.1759 60.8281C31.9463 60.3985 31.8669 59.9045 31.9502 59.4246C32.0334 58.9447 32.2747 58.5064 32.6356 58.1793C32.9965 57.8522 33.4564 57.655 33.9422 57.6192C34.428 57.5834 34.9118 57.7109 35.3168 57.9815C35.6156 58.1811 35.8605 58.4514 36.0299 58.7683C36.1993 59.0853 36.2879 59.4391 36.2879 59.7985Z" stroke="#FEECE6" stroke-width="1.25" stroke-miterlimit="10" stroke-linecap="round" stroke-linejoin="round"/>
<path d="M62.6863 28.9855C62.6863 29.565 62.4561 30.1207 62.0463 30.5305C61.6366 30.9402 61.0808 31.1704 60.5014 31.1704C59.9219 31.1704 59.3661 30.9402 58.9564 30.5305C58.5466 30.1207 58.3164 29.565 58.3164 28.9855C58.3164 28.406 58.5466 27.8502 58.9564 27.4405C59.3661 27.0307 59.9219 26.8005 60.5014 26.8005C61.0808 26.8005 61.6366 27.0307 62.0463 27.4405C62.4561 27.8502 62.6863 28.406 62.6863 28.9855Z" stroke="#F24500" stroke-width="1.25" stroke-miterlimit="10" stroke-linecap="round" stroke-linejoin="round"/>
<path d="M49.487 59.7985C49.491 60.3223 49.3067 60.83 48.9676 61.2293C48.6286 61.6286 48.1574 61.8928 47.64 61.9737C47.1225 62.0547 46.5931 61.9471 46.1483 61.6705C45.7035 61.3939 45.3729 60.9667 45.2166 60.4668C45.0604 59.9668 45.089 59.4274 45.2971 58.9468C45.5053 58.4661 45.8792 58.0762 46.3507 57.8482C46.8222 57.6201 47.36 57.569 47.866 57.7042C48.3721 57.8393 48.8127 58.1518 49.1077 58.5846C49.3517 58.9427 49.4837 59.3652 49.487 59.7985Z" stroke="#F24500" stroke-width="1.25" stroke-miterlimit="10" stroke-linecap="round" stroke-linejoin="round"/>
<path d="M75.8728 39.9859C75.8739 40.4353 75.7362 40.874 75.4785 41.2421C75.2208 41.6102 74.8557 41.8898 74.4331 42.0426C74.0105 42.1953 73.5511 42.2138 73.1176 42.0956C72.684 41.9773 72.2976 41.728 72.0112 41.3818C71.7443 41.062 71.5744 40.6724 71.5216 40.2592C71.4687 39.846 71.5351 39.4263 71.7129 39.0495C71.8907 38.6728 72.1725 38.3547 72.5251 38.1328C72.8777 37.9109 73.2864 37.7945 73.703 37.7972C74.2805 37.8012 74.8329 38.0337 75.2395 38.4438C75.6461 38.8539 75.8738 39.4084 75.8728 39.9859Z" stroke="#F24500" stroke-width="1.25" stroke-miterlimit="10" stroke-linecap="round" stroke-linejoin="round"/>
<path d="M75.8738 20.1849C75.8738 20.6171 75.7457 21.0395 75.5056 21.3988C75.2655 21.7581 74.9242 22.0382 74.525 22.2036C74.1257 22.3689 73.6864 22.4122 73.2626 22.3279C72.8388 22.2436 72.4494 22.0355 72.1439 21.7299C71.8383 21.4244 71.6302 21.035 71.5459 20.6112C71.4616 20.1874 71.5049 19.748 71.6702 19.3488C71.8356 18.9496 72.1156 18.6083 72.475 18.3682C72.8343 18.1281 73.2567 18 73.6889 18C74.2683 18 74.8241 18.2302 75.2338 18.64C75.6436 19.0497 75.8738 19.6055 75.8738 20.1849Z" stroke="#F24500" stroke-width="1.25" stroke-miterlimit="10" stroke-linecap="round" stroke-linejoin="round"/>
<path d="M75.8738 59.7985C75.8738 60.2306 75.7457 60.653 75.5056 61.0124C75.2655 61.3717 74.9242 61.6517 74.525 61.8171C74.1257 61.9825 73.6864 62.0257 73.2626 61.9414C72.8388 61.8571 72.4494 61.649 72.1439 61.3435C71.8383 61.0379 71.6302 60.6486 71.5459 60.2247C71.4616 59.8009 71.5049 59.3616 71.6702 58.9623C71.8356 58.5631 72.1156 58.2218 72.475 57.9818C72.8343 57.7417 73.2567 57.6135 73.6889 57.6135C74.2683 57.6135 74.8241 57.8437 75.2338 58.2535C75.6436 58.6632 75.8738 59.219 75.8738 59.7985Z" stroke="#F24500" stroke-width="1.25" stroke-miterlimit="10" stroke-linecap="round" stroke-linejoin="round"/>
</g>
<defs>
<clipPath id="clip0_2390_10812">
<rect width="80" height="80" fill="white" transform="translate(0.5)"/>
</clipPath>
</defs>
</svg>
