<svg width="81" height="80" viewBox="0 0 81 80" fill="none" xmlns="http://www.w3.org/2000/svg">
<g clip-path="url(#clip0_2390_10884)">
<path d="M34.5001 58.0003C47.755 58.0003 58.5003 47.2551 58.5003 34.0001C58.5003 20.7452 47.755 10 34.5001 10C21.2452 10 10.5 20.7452 10.5 34.0001C10.5 47.2551 21.2452 58.0003 34.5001 58.0003Z" stroke="#FEECE6" stroke-width="1.25" stroke-miterlimit="10" stroke-linecap="round" stroke-linejoin="round"/>
<path d="M34.5001 55.0003C46.0982 55.0003 55.5003 45.5982 55.5003 34.0001C55.5003 22.4021 46.0982 13 34.5001 13C22.9021 13 13.5 22.4021 13.5 34.0001C13.5 45.5982 22.9021 55.0003 34.5001 55.0003Z" stroke="#F24500" stroke-width="1.25" stroke-miterlimit="10" stroke-linecap="round" stroke-linejoin="round"/>
<path d="M50.4609 51.9795L54.4903 56.0088" stroke="#FEECE6" stroke-width="1.25" stroke-miterlimit="10" stroke-linecap="round" stroke-linejoin="round"/>
<path d="M52.4648 49.9727L56.4942 54.002" stroke="#FEECE6" stroke-width="1.25" stroke-miterlimit="10" stroke-linecap="round" stroke-linejoin="round"/>
<path d="M58.5 52.0002L69.2587 62.7589C70.0534 63.5551 70.4998 64.634 70.4998 65.7589C70.4998 66.8839 70.0534 67.9628 69.2587 68.759C68.4626 69.5537 67.3836 70 66.2587 70C65.1338 70 64.0548 69.5537 63.2587 68.759L52.5 57.9848L58.5 52.0002Z" stroke="#F24500" stroke-width="1.25" stroke-miterlimit="10" stroke-linecap="round" stroke-linejoin="round"/>
<path d="M45.0369 28.7169H23.9624C23.2638 28.7169 22.5937 28.4393 22.0997 27.9453C21.6057 27.4513 21.3281 26.7812 21.3281 26.0825C21.3281 25.3839 21.6057 24.7138 22.0997 24.2198C22.5937 23.7258 23.2638 23.4482 23.9624 23.4482H45.0369C45.7355 23.4482 46.4056 23.7258 46.8996 24.2198C47.3936 24.7138 47.6712 25.3839 47.6712 26.0825C47.6712 26.7812 47.3936 27.4513 46.8996 27.9453C46.4056 28.4393 45.7355 28.7169 45.0369 28.7169Z" stroke="#FEECE6" stroke-width="1.25" stroke-miterlimit="10" stroke-linecap="round" stroke-linejoin="round"/>
<path d="M45.0368 31.365H23.9624C22.5075 31.365 21.3281 32.5444 21.3281 33.9993C21.3281 35.4542 22.5075 36.6336 23.9624 36.6336H45.0368C46.4917 36.6336 47.6712 35.4542 47.6712 33.9993C47.6712 32.5444 46.4917 31.365 45.0368 31.365Z" stroke="#FEECE6" stroke-width="1.25" stroke-miterlimit="10" stroke-linecap="round" stroke-linejoin="round"/>
<path d="M45.0368 39.2678H23.9624C22.5075 39.2678 21.3281 40.4472 21.3281 41.9021C21.3281 43.357 22.5075 44.5364 23.9624 44.5364H45.0368C46.4917 44.5364 47.6712 43.357 47.6712 41.9021C47.6712 40.4472 46.4917 39.2678 45.0368 39.2678Z" stroke="#FEECE6" stroke-width="1.25" stroke-miterlimit="10" stroke-linecap="round" stroke-linejoin="round"/>
<path d="M34.5 28.7307V31.365" stroke="#FEECE6" stroke-width="1.25" stroke-miterlimit="10" stroke-linecap="round" stroke-linejoin="round"/>
<path d="M34.5 36.6335V39.2678" stroke="#FEECE6" stroke-width="1.25" stroke-miterlimit="10" stroke-linecap="round" stroke-linejoin="round"/>
<path d="M45.4134 33.8578C45.4134 33.5722 45.1818 33.3406 44.8962 33.3406C44.6105 33.3406 44.3789 33.5722 44.3789 33.8578C44.3789 34.1435 44.6105 34.3751 44.8962 34.3751C45.1818 34.3751 45.4134 34.1435 45.4134 33.8578Z" stroke="#F24500" stroke-width="1.25" stroke-linecap="round" stroke-linejoin="round"/>
<path d="M42.7806 33.8578C42.7806 33.5722 42.549 33.3406 42.2633 33.3406C41.9777 33.3406 41.7461 33.5722 41.7461 33.8578C41.7461 34.1435 41.9777 34.3751 42.2633 34.3751C42.549 34.3751 42.7806 34.1435 42.7806 33.8578Z" stroke="#F24500" stroke-width="1.25" stroke-linecap="round" stroke-linejoin="round"/>
<path d="M40.1439 33.8578C40.1439 33.5722 39.9123 33.3406 39.6266 33.3406C39.341 33.3406 39.1094 33.5722 39.1094 33.8578C39.1094 34.1435 39.341 34.3751 39.6266 34.3751C39.9123 34.3751 40.1439 34.1435 40.1439 33.8578Z" stroke="#F24500" stroke-width="1.25" stroke-linecap="round" stroke-linejoin="round"/>
<path d="M45.4134 26.0011C45.4134 25.7155 45.1818 25.4839 44.8962 25.4839C44.6105 25.4839 44.3789 25.7155 44.3789 26.0011C44.3789 26.2868 44.6105 26.5184 44.8962 26.5184C45.1818 26.5184 45.4134 26.2868 45.4134 26.0011Z" stroke="#F24500" stroke-width="1.25" stroke-linecap="round" stroke-linejoin="round"/>
<path d="M42.7806 26.0011C42.7806 25.7155 42.549 25.4839 42.2633 25.4839C41.9777 25.4839 41.7461 25.7155 41.7461 26.0011C41.7461 26.2868 41.9777 26.5184 42.2633 26.5184C42.549 26.5184 42.7806 26.2868 42.7806 26.0011Z" stroke="#F24500" stroke-width="1.25" stroke-linecap="round" stroke-linejoin="round"/>
<path d="M40.1439 26.0011C40.1439 25.7155 39.9123 25.4839 39.6266 25.4839C39.341 25.4839 39.1094 25.7155 39.1094 26.0011C39.1094 26.2868 39.341 26.5184 39.6266 26.5184C39.9123 26.5184 40.1439 26.2868 40.1439 26.0011Z" stroke="#F24500" stroke-width="1.25" stroke-linecap="round" stroke-linejoin="round"/>
<path d="M45.4134 41.7609C45.4134 41.4752 45.1818 41.2437 44.8962 41.2437C44.6105 41.2437 44.3789 41.4752 44.3789 41.7609C44.3789 42.0466 44.6105 42.2781 44.8962 42.2781C45.1818 42.2781 45.4134 42.0466 45.4134 41.7609Z" stroke="#F24500" stroke-width="1.25" stroke-linecap="round" stroke-linejoin="round"/>
<path d="M42.7806 41.7609C42.7806 41.4752 42.549 41.2437 42.2633 41.2437C41.9777 41.2437 41.7461 41.4752 41.7461 41.7609C41.7461 42.0466 41.9777 42.2781 42.2633 42.2781C42.549 42.2781 42.7806 42.0466 42.7806 41.7609Z" stroke="#F24500" stroke-width="1.25" stroke-linecap="round" stroke-linejoin="round"/>
<path d="M40.1439 41.7609C40.1439 41.4752 39.9123 41.2437 39.6266 41.2437C39.341 41.2437 39.1094 41.4752 39.1094 41.7609C39.1094 42.0466 39.341 42.2781 39.6266 42.2781C39.9123 42.2781 40.1439 42.0466 40.1439 41.7609Z" stroke="#F24500" stroke-width="1.25" stroke-linecap="round" stroke-linejoin="round"/>
</g>
<defs>
<clipPath id="clip0_2390_10884">
<rect width="80" height="80" fill="white" transform="translate(0.5)"/>
</clipPath>
</defs>
</svg>
