<svg width="81" height="80" viewBox="0 0 81 80" fill="none" xmlns="http://www.w3.org/2000/svg">
<g clip-path="url(#clip0_2390_10851)">
<path d="M74.2461 62.5V24.2539" stroke="#FEECE6" stroke-width="1.25" stroke-miterlimit="10" stroke-linecap="round" stroke-linejoin="round"/>
<path d="M69.7461 62.5V26.05" stroke="#FEECE6" stroke-width="1.25" stroke-miterlimit="10" stroke-linecap="round" stroke-linejoin="round"/>
<path d="M65.2461 62.5001V27.8501" stroke="#FEECE6" stroke-width="1.25" stroke-miterlimit="10" stroke-linecap="round" stroke-linejoin="round"/>
<path d="M60.7461 62.4999V29.6499" stroke="#FEECE6" stroke-width="1.25" stroke-miterlimit="10" stroke-linecap="round" stroke-linejoin="round"/>
<path d="M56.2461 62.4999V31.45" stroke="#FEECE6" stroke-width="1.25" stroke-miterlimit="10" stroke-linecap="round" stroke-linejoin="round"/>
<path d="M51.7461 62.5V33.2539" stroke="#FEECE6" stroke-width="1.25" stroke-miterlimit="10" stroke-linecap="round" stroke-linejoin="round"/>
<path d="M47.2461 62.5001V37.304" stroke="#FEECE6" stroke-width="1.25" stroke-miterlimit="10" stroke-linecap="round" stroke-linejoin="round"/>
<path d="M42.7461 62.5001V41.354" stroke="#FEECE6" stroke-width="1.25" stroke-miterlimit="10" stroke-linecap="round" stroke-linejoin="round"/>
<path d="M38.2461 62.4999V45.4038" stroke="#FEECE6" stroke-width="1.25" stroke-miterlimit="10" stroke-linecap="round" stroke-linejoin="round"/>
<path d="M33.7461 62.5V49.4539" stroke="#FEECE6" stroke-width="1.25" stroke-miterlimit="10" stroke-linecap="round" stroke-linejoin="round"/>
<path d="M29.2461 62.5V53.5" stroke="#FEECE6" stroke-width="1.25" stroke-miterlimit="10" stroke-linecap="round" stroke-linejoin="round"/>
<path d="M24.7461 62.5V53.95" stroke="#FEECE6" stroke-width="1.25" stroke-miterlimit="10" stroke-linecap="round" stroke-linejoin="round"/>
<path d="M20.2461 62.4999V54.3999" stroke="#FEECE6" stroke-width="1.25" stroke-miterlimit="10" stroke-linecap="round" stroke-linejoin="round"/>
<path d="M15.7461 62.5001V54.8501" stroke="#FEECE6" stroke-width="1.25" stroke-miterlimit="10" stroke-linecap="round" stroke-linejoin="round"/>
<path d="M11.2461 62.5V55.3" stroke="#FEECE6" stroke-width="1.25" stroke-miterlimit="10" stroke-linecap="round" stroke-linejoin="round"/>
<path d="M6.75 62.5V55.75" stroke="#FEECE6" stroke-width="1.25" stroke-miterlimit="10" stroke-linecap="round" stroke-linejoin="round"/>
<path d="M27.9543 32.8388C27.6915 34.2903 27.1127 35.6663 26.259 36.8694L28.6681 39.2784C28.0086 40.1351 27.2479 40.9088 26.4026 41.5827L26.2784 41.6836L23.8694 39.2552C23.1687 39.7522 22.4073 40.1576 21.6039 40.4616C20.9766 40.7009 20.3267 40.8764 19.6642 40.9853V44.3952C18.5435 44.5349 17.4099 44.5349 16.2892 44.3952V40.9853C14.791 40.7271 13.3698 40.1359 12.1306 39.2552L9.72154 41.6642C8.82863 40.973 8.02698 40.1714 7.33577 39.2784L9.74482 36.8694C8.86503 35.6223 8.27763 34.1929 8.02628 32.6875H4.60473C4.46509 31.5668 4.46509 30.4332 4.60473 29.3125H8.02628C8.28113 27.8061 8.87253 26.3767 9.75645 25.1306L7.3474 22.7215C8.03862 21.8286 8.84027 21.027 9.73318 20.3358L12.1422 22.7448C13.3856 21.8653 14.8108 21.2766 16.3125 21.0224V17.6047C17.4332 17.4651 18.5668 17.4651 19.6875 17.6047V21.0224C21.1938 21.2772 22.6233 21.8687 23.8694 22.7526L26.2784 20.3435C27.1713 21.0347 27.973 21.8364 28.6642 22.7293L26.259 25.1306C27.143 26.3767 27.7344 27.8061 27.9892 29.3125H31.3991C31.5388 30.4332 31.5388 31.5668 31.3991 32.6875H27.9853C27.9776 32.7379 27.9659 32.7884 27.9543 32.8388Z" stroke="#F24500" stroke-width="1.25" stroke-miterlimit="10" stroke-linecap="round" stroke-linejoin="round"/>
<path d="M23.6406 25.4526L19.1406 30.8992V36.6755H16.8906V30.8992L12.3906 25.4526H23.6406Z" stroke="#FEECE6" stroke-width="1.25" stroke-miterlimit="10" stroke-linecap="round" stroke-linejoin="round"/>
<path d="M50.078 30.2551L30.9142 47.4948M72.1591 20.584L53.8371 27.9159M27.0116 49.2249L9 51.0249" stroke="#FEECE6" stroke-width="1.25" stroke-miterlimit="10" stroke-linecap="round" stroke-linejoin="round"/>
<path d="M6.75 53.5C7.99264 53.5 9 52.4926 9 51.25C9 50.0074 7.99264 49 6.75 49C5.50736 49 4.5 50.0074 4.5 51.25C4.5 52.4926 5.50736 53.5 6.75 53.5Z" stroke="#F24500" stroke-width="1.25" stroke-miterlimit="10" stroke-linecap="round" stroke-linejoin="round"/>
<path d="M74.25 22C75.4926 22 76.5 20.9926 76.5 19.75C76.5 18.5074 75.4926 17.5 74.25 17.5C73.0074 17.5 72 18.5074 72 19.75C72 20.9926 73.0074 22 74.25 22Z" stroke="#F24500" stroke-width="1.25" stroke-miterlimit="10" stroke-linecap="round" stroke-linejoin="round"/>
<path d="M31.4991 49.0001C31.4982 49.5767 31.276 50.131 30.8783 50.5485C30.4805 50.966 29.9377 51.2149 29.3618 51.2438C28.7859 51.2726 28.2209 51.0793 27.7834 50.7036C27.3459 50.328 27.0694 49.7987 27.0108 49.2251C27.0068 49.1502 27.0068 49.075 27.0108 49.0001C27.0151 48.5494 27.1547 48.1103 27.4115 47.7399C27.6683 47.3694 28.0305 47.0847 28.451 46.9225C28.8716 46.7603 29.3312 46.7281 29.7702 46.8302C30.2092 46.9323 30.6075 47.1638 30.9134 47.4949C31.2829 47.9096 31.4884 48.4447 31.4914 49.0001H31.4991Z" stroke="#F24500" stroke-width="1.25" stroke-miterlimit="10" stroke-linecap="round" stroke-linejoin="round"/>
<path d="M54 28.7501C53.9999 29.2051 53.8619 29.6494 53.6041 30.0243C53.3463 30.3992 52.981 30.6872 52.5562 30.8502C52.1314 31.0133 51.6672 31.0437 51.2247 30.9375C50.7823 30.8312 50.3825 30.5934 50.078 30.2553C49.7085 29.8406 49.503 29.3055 49.5 28.7501C49.4989 28.2837 49.6429 27.8286 49.9122 27.4478C50.1815 27.067 50.5626 26.7795 51.0026 26.6251C51.4427 26.4708 51.9199 26.4572 52.3681 26.5864C52.8162 26.7155 53.213 26.9809 53.5035 27.3458C53.6441 27.5171 53.7567 27.7095 53.8371 27.916C53.945 28.1809 54.0003 28.4641 54 28.7501Z" stroke="#F24500" stroke-width="1.25" stroke-miterlimit="10" stroke-linecap="round" stroke-linejoin="round"/>
</g>
<defs>
<clipPath id="clip0_2390_10851">
<rect width="80" height="80" fill="white" transform="translate(0.5)"/>
</clipPath>
</defs>
</svg>
