<svg width="18" height="12" viewBox="0 0 18 12" fill="none" xmlns="http://www.w3.org/2000/svg">
<path d="M16.8282 0.411626C16.7197 0.302277 16.5907 0.215483 16.4485 0.156253C16.3064 0.0970227 16.1539 0.0665283 15.9999 0.0665283C15.8458 0.0665283 15.6934 0.0970227 15.5512 0.156253C15.409 0.215483 15.28 0.302277 15.1715 0.411626L6.47986 9.11496L2.82819 5.45163C2.71558 5.34285 2.58265 5.25732 2.43699 5.19991C2.29132 5.14251 2.13578 5.11435 1.97924 5.11706C1.82269 5.11977 1.66821 5.15329 1.52462 5.2157C1.38103 5.2781 1.25114 5.36819 1.14236 5.48079C1.03358 5.5934 0.948049 5.72633 0.890644 5.872C0.833239 6.01766 0.805087 6.17321 0.807796 6.32975C0.810504 6.48629 0.84402 6.64077 0.906429 6.78436C0.968838 6.92796 1.05892 7.05785 1.17153 7.16663L5.65153 11.6466C5.75998 11.756 5.88902 11.8428 6.03119 11.902C6.17336 11.9612 6.32585 11.9917 6.47986 11.9917C6.63387 11.9917 6.78636 11.9612 6.92853 11.902C7.0707 11.8428 7.19974 11.756 7.30819 11.6466L16.8282 2.12663C16.9466 2.01738 17.0411 1.88478 17.1058 1.7372C17.1704 1.58962 17.2038 1.43025 17.2038 1.26913C17.2038 1.10801 17.1704 0.948635 17.1058 0.801052C17.0411 0.653469 16.9466 0.520876 16.8282 0.411626Z" fill="#6CCF8E"/>
</svg>
