<svg width="122" height="97" viewBox="0 0 122 97" fill="none" xmlns="http://www.w3.org/2000/svg">
<path d="M108.903 85.5409C126.957 80.2436 122.353 57.106 103.803 55.3365C107.946 35.6012 86.4939 22.7677 67.2814 33.2166C66.6994 30.5391 65.595 28.2755 64.1087 26.4058" stroke="#F24500" stroke-width="2" stroke-linecap="round" stroke-linejoin="round"/>
<path d="M15.4862 81.8379C-9.81113 69.6216 3.16184 42.1622 25.8509 44.1291C20.2233 25.8978 40.03 16.4956 54.3086 20.2919" stroke="#F24500" stroke-width="2" stroke-linecap="round" stroke-linejoin="round"/>
<path d="M63.4448 40.6487L112.027 95.1352H6.0814L63.4448 40.6487Z" stroke="#FEECE6" stroke-width="2" stroke-linecap="round" stroke-linejoin="round"/>
<path d="M35.2703 67.5675L37.0758 73.3337L45.8175 66.497L52.581 73.5261L61.1131 64.0059L68.0857 72.6745L75.198 67.5874L85.1942 77.6215C85.1942 77.6215 86.5527 72.7348 87.9189 68.2161" stroke="#FEECE6" stroke-width="2" stroke-linecap="round" stroke-linejoin="round"/>
<path d="M58.6216 3.47275C58.6216 3.47275 72.0439 -1.87145 81.353 7.43768C90.6622 16.7468 102.212 11.802 102.212 11.802C102.212 11.802 93.7648 22.566 77.9051 20.9492C62.0453 19.3325 58.0811 26.1623 58.0811 26.1623" stroke="#FEECE6" stroke-width="2" stroke-linecap="round" stroke-linejoin="round"/>
<path d="M57.6758 1.125L57.6853 46.1251" stroke="#FEECE6" stroke-width="2" stroke-linecap="round" stroke-linejoin="round"/>
</svg>
