<svg width="20" height="18" viewBox="0 0 22 18" fill="none" xmlns="http://www.w3.org/2000/svg">
  <g opacity="0.5">
    <path d="M4.14648 17.0666L11.0001 5.20459L17.8537 17.0666H16.8313L11.0001 7.06956L5.16889 17.0666H4.14648Z" fill="white"/>
    <path d="M6.9507 17.0666H8.11771L10.9834 12.0842L13.8696 17.0666H14.9966L10.9737 10.1028L6.9507 17.0666Z" fill="white"/>
  </g>
  <path d="M17.5444 11.3278L17.6844 11.2319C18.6292 10.5812 19.3136 9.60861 19.6132 8.49511C19.951 7.23679 19.7787 5.92368 19.1276 4.79648C18.4765 3.6683 17.425 2.86204 16.1668 2.52544C15.7517 2.41389 15.3248 2.35714 14.8999 2.35714C14.191 2.35714 13.4743 2.51957 12.8251 2.82583L12.6734 2.89726L11.0001 0L0.600098 18H21.4001L17.5454 11.3278H17.5444ZM13.2745 3.66047C13.7827 3.42759 14.3437 3.30431 14.8989 3.30431C15.2425 3.30431 15.5862 3.34932 15.923 3.43933C16.9325 3.70841 17.7794 4.35714 18.3061 5.26614C18.8309 6.17319 18.97 7.2319 18.6978 8.24462C18.4579 9.13894 17.9341 9.89237 17.1841 10.4227L17.0686 10.5039L13.1473 3.71722L13.2736 3.65949L13.2745 3.66047ZM11.0001 1.86497L19.7826 17.0665H2.21757L11.0001 1.86497Z" fill="white"/>
</svg>
