<svg width="24" height="24" viewBox="0 0 24 24" fill="none" xmlns="http://www.w3.org/2000/svg">
<g clip-path="url(#clip0_1_208)">
<path fill-rule="evenodd" clip-rule="evenodd" d="M7.44443 16.6685C7.60888 16.5586 7.80222 16.5 8 16.5C8.26522 16.5 8.51957 16.6054 8.70711 16.7929C8.89464 16.9804 9 17.2348 9 17.5C9 17.6978 8.94135 17.8911 8.83147 18.0556C8.72159 18.22 8.56541 18.3482 8.38268 18.4239C8.19996 18.4996 7.99889 18.5194 7.80491 18.4808C7.61093 18.4422 7.43275 18.347 7.29289 18.2071C7.15304 18.0673 7.0578 17.8891 7.01921 17.6951C6.98063 17.5011 7.00043 17.3 7.07612 17.1173C7.15181 16.9346 7.27998 16.7784 7.44443 16.6685ZM4 6C4 3.37 8 2 12 2C16 2 20 3.37 20 6V13H19C17.2505 13 15.7633 14.1232 15.2202 15.6878C14.1673 15.9231 13.0859 16.0289 12 16C9.92789 16.0551 7.87207 15.62 6 14.73V18C6 18.71 8.28 20 12 20C13.1444 20 14.1526 19.8779 15 19.6882V21.7334C14.0445 21.9105 13.0223 22 12 22C8 22 4 20.63 4 18V6ZM12 14C15.72 14 18 12.71 18 12V8.73C16.1279 9.61996 14.0721 10.0551 12 10C9.92789 10.0551 7.87207 9.61996 6 8.73V12C6 12.71 8.28 14 12 14ZM6 6C6 6.71 8.28 8 12 8C15.72 8 18 6.71 18 6C18 5.29 15.72 4 12 4C8.28 4 6 5.29 6 6ZM7.44443 10.6685C7.60888 10.5586 7.80222 10.5 8 10.5C8.26522 10.5 8.51957 10.6054 8.70711 10.7929C8.89464 10.9804 9 11.2348 9 11.5C9 11.6978 8.94135 11.8911 8.83147 12.0556C8.72159 12.22 8.56541 12.3482 8.38268 12.4239C8.19996 12.4996 7.99889 12.5194 7.80491 12.4808C7.61093 12.4422 7.43275 12.347 7.29289 12.2071C7.15304 12.0673 7.0578 11.8891 7.01921 11.6951C6.98063 11.5011 7.00043 11.3 7.07612 11.1173C7.15181 10.9346 7.27998 10.7784 7.44443 10.6685Z" fill="currentColor"/>
<path d="M17.7568 19.499L18.8408 19.7676C18.8929 19.7155 18.9482 19.6667 19.0068 19.6211C19.0654 19.5723 19.1322 19.5299 19.207 19.4941C19.2819 19.4583 19.3682 19.429 19.4658 19.4062C19.5635 19.3835 19.679 19.3721 19.8125 19.3721C20.0111 19.3721 20.1836 19.403 20.3301 19.4648C20.4766 19.5267 20.5986 19.6146 20.6963 19.7285C20.7939 19.8424 20.8656 19.9792 20.9111 20.1387C20.96 20.2949 20.9844 20.4674 20.9844 20.6562C20.9844 20.8483 20.9648 21.0273 20.9258 21.1934C20.89 21.3594 20.833 21.5026 20.7549 21.623C20.6735 21.7435 20.5677 21.8379 20.4375 21.9062C20.3105 21.9746 20.1559 22.0088 19.9736 22.0088C19.6774 22.0088 19.4333 21.9242 19.2412 21.7549C19.0524 21.5856 18.9417 21.3464 18.9092 21.0371H17.5713C17.5811 21.3659 17.6543 21.6589 17.791 21.916C17.931 22.1699 18.1117 22.3848 18.333 22.5605C18.5544 22.7363 18.8066 22.8698 19.0898 22.9609C19.3763 23.0521 19.6725 23.0977 19.9785 23.0977C20.3822 23.0977 20.7321 23.0342 21.0283 22.9072C21.3245 22.7803 21.5703 22.6077 21.7656 22.3896C21.9609 22.1715 22.1058 21.9193 22.2002 21.6328C22.2946 21.3464 22.3418 21.0436 22.3418 20.7246C22.3418 20.3503 22.293 20.015 22.1953 19.7188C22.0977 19.4225 21.9577 19.1719 21.7754 18.9668C21.5898 18.7617 21.362 18.6055 21.0918 18.498C20.8249 18.3874 20.5205 18.332 20.1787 18.332C19.9378 18.332 19.7246 18.363 19.5391 18.4248C19.3535 18.4867 19.2103 18.5469 19.1094 18.6055L19.2803 17.043H22.1074V15.8906H18.1621L17.7568 19.499Z" fill="currentColor"/>
</g>
<defs>
<clipPath id="clip0_1_208">
<rect width="24" height="24" fill="white"/>
</clipPath>
</defs>
</svg>
