<svg width="24" height="24" viewBox="0 0 24 24" fill="none" xmlns="http://www.w3.org/2000/svg">
    <g clip-path="url(#clip0_1_331)">
        <path fill-rule="evenodd" clip-rule="evenodd" d="M7.44443 16.6685C7.60888 16.5586 7.80222 16.5 8 16.5C8.26522 16.5 8.51957 16.6054 8.70711 16.7929C8.89464 16.9804 9 17.2348 9 17.5C9 17.6978 8.94135 17.8911 8.83147 18.0556C8.72159 18.22 8.56541 18.3482 8.38268 18.4239C8.19996 18.4996 7.99889 18.5194 7.80491 18.4808C7.61093 18.4422 7.43275 18.347 7.29289 18.2071C7.15304 18.0673 7.0578 17.8891 7.01921 17.6951C6.98063 17.5011 7.00043 17.3 7.07612 17.1173C7.15181 16.9346 7.27998 16.7784 7.44443 16.6685ZM4 6C4 3.37 8 2 12 2C16 2 20 3.37 20 6V13H19C17.2505 13 15.7633 14.1232 15.2202 15.6878C14.1673 15.9231 13.0859 16.0289 12 16C9.92789 16.0551 7.87207 15.62 6 14.73V18C6 18.71 8.28 20 12 20C13.1444 20 14.1526 19.8779 15 19.6882V21.7334C14.0445 21.9105 13.0223 22 12 22C8 22 4 20.63 4 18V6ZM12 14C15.72 14 18 12.71 18 12V8.73C16.1279 9.61996 14.0721 10.0551 12 10C9.92789 10.0551 7.87207 9.61996 6 8.73V12C6 12.71 8.28 14 12 14ZM6 6C6 6.71 8.28 8 12 8C15.72 8 18 6.71 18 6C18 5.29 15.72 4 12 4C8.28 4 6 5.29 6 6ZM7.44443 10.6685C7.60888 10.5586 7.80222 10.5 8 10.5C8.26522 10.5 8.51957 10.6054 8.70711 10.7929C8.89464 10.9804 9 11.2348 9 11.5C9 11.6978 8.94135 11.8911 8.83147 12.0556C8.72159 12.22 8.56541 12.3482 8.38268 12.4239C8.19996 12.4996 7.99889 12.5194 7.80491 12.4808C7.61093 12.4422 7.43275 12.347 7.29289 12.2071C7.15304 12.0673 7.0578 11.8891 7.01921 11.6951C6.98063 11.5011 7.00043 11.3 7.07612 11.1173C7.15181 10.9346 7.27998 10.7784 7.44443 10.6685Z" fill="currentColor"/>
        <path d="M21.0137 23V15.8906H20.9404L17.8447 17.0088V18.1904L19.6416 17.5459V23H21.0137Z" fill="#CCCCDC"/>
    </g>
    <defs>
        <clipPath id="clip0_1_331">
            <rect width="24" height="24" fill="white"/>
        </clipPath>
    </defs>
</svg>
