<svg width="24" height="24" viewBox="0 0 24 24" fill="none" xmlns="http://www.w3.org/2000/svg">
<g clip-path="url(#clip0_1_184)">
<path fill-rule="evenodd" clip-rule="evenodd" d="M7.44443 16.6685C7.60888 16.5586 7.80222 16.5 8 16.5C8.26522 16.5 8.51957 16.6054 8.70711 16.7929C8.89464 16.9804 9 17.2348 9 17.5C9 17.6978 8.94135 17.8911 8.83147 18.0556C8.72159 18.22 8.56541 18.3482 8.38268 18.4239C8.19996 18.4996 7.99889 18.5194 7.80491 18.4808C7.61093 18.4422 7.43275 18.347 7.29289 18.2071C7.15304 18.0673 7.0578 17.8891 7.01921 17.6951C6.98063 17.5011 7.00043 17.3 7.07612 17.1173C7.15181 16.9346 7.27998 16.7784 7.44443 16.6685ZM4 6C4 3.37 8 2 12 2C16 2 20 3.37 20 6V13H19C17.2505 13 15.7633 14.1232 15.2202 15.6878C14.1673 15.9231 13.0859 16.0289 12 16C9.92789 16.0551 7.87207 15.62 6 14.73V18C6 18.71 8.28 20 12 20C13.1444 20 14.1526 19.8779 15 19.6882V21.7334C14.0445 21.9105 13.0223 22 12 22C8 22 4 20.63 4 18V6ZM12 14C15.72 14 18 12.71 18 12V8.73C16.1279 9.61996 14.0721 10.0551 12 10C9.92789 10.0551 7.87207 9.61996 6 8.73V12C6 12.71 8.28 14 12 14ZM6 6C6 6.71 8.28 8 12 8C15.72 8 18 6.71 18 6C18 5.29 15.72 4 12 4C8.28 4 6 5.29 6 6ZM7.44443 10.6685C7.60888 10.5586 7.80222 10.5 8 10.5C8.26522 10.5 8.51957 10.6054 8.70711 10.7929C8.89464 10.9804 9 11.2348 9 11.5C9 11.6978 8.94135 11.8911 8.83147 12.0556C8.72159 12.22 8.56541 12.3482 8.38268 12.4239C8.19996 12.4996 7.99889 12.5194 7.80491 12.4808C7.61093 12.4422 7.43275 12.347 7.29289 12.2071C7.15304 12.0673 7.0578 11.8891 7.01921 11.6951C6.98063 11.5011 7.00043 11.3 7.07612 11.1173C7.15181 10.9346 7.27998 10.7784 7.44443 10.6685Z" fill="currentColor"/>
<path d="M19.0557 18.8496V19.9043H19.793C19.9785 19.9043 20.1445 19.9255 20.291 19.9678C20.4408 20.0101 20.5693 20.0752 20.6768 20.1631C20.7809 20.251 20.8607 20.3633 20.916 20.5C20.9714 20.6367 20.999 20.8011 20.999 20.9932C20.999 21.1462 20.9746 21.2845 20.9258 21.4082C20.8802 21.5319 20.8118 21.6361 20.7207 21.7207C20.6263 21.8151 20.5091 21.8867 20.3691 21.9355C20.2292 21.9844 20.0713 22.0088 19.8955 22.0088C19.7393 22.0088 19.596 21.986 19.4658 21.9404C19.3356 21.8916 19.2233 21.8249 19.1289 21.7402C19.0312 21.6589 18.9564 21.5612 18.9043 21.4473C18.8522 21.3301 18.8262 21.2031 18.8262 21.0664H17.4688C17.4688 21.4115 17.5355 21.7109 17.6689 21.9648C17.8057 22.2188 17.9863 22.4287 18.2109 22.5947C18.4355 22.764 18.6911 22.891 18.9775 22.9756C19.2673 23.057 19.5635 23.0977 19.8662 23.0977C20.2178 23.0977 20.5449 23.0521 20.8477 22.9609C21.1536 22.8665 21.4173 22.7298 21.6387 22.5508C21.86 22.375 22.0342 22.1569 22.1611 21.8965C22.2881 21.6361 22.3516 21.3398 22.3516 21.0078C22.3516 20.819 22.3288 20.64 22.2832 20.4707C22.2376 20.3014 22.1676 20.1452 22.0732 20.002C21.9788 19.862 21.8584 19.7367 21.7119 19.626C21.5687 19.5153 21.3978 19.4242 21.1992 19.3525C21.3685 19.2712 21.5182 19.1751 21.6484 19.0645C21.7786 18.9505 21.8877 18.8268 21.9756 18.6934C22.0635 18.5599 22.1302 18.4199 22.1758 18.2734C22.2214 18.1237 22.2441 17.9723 22.2441 17.8193C22.2441 17.4873 22.1855 17.196 22.0684 16.9453C21.9544 16.6914 21.7933 16.4782 21.585 16.3057C21.3766 16.1364 21.126 16.0094 20.833 15.9248C20.54 15.8369 20.2178 15.793 19.8662 15.793C19.5407 15.793 19.2363 15.8402 18.9531 15.9346C18.6732 16.029 18.429 16.1608 18.2207 16.3301C18.0124 16.5026 17.848 16.7077 17.7275 16.9453C17.6104 17.1829 17.5518 17.4466 17.5518 17.7363H18.9092C18.9092 17.6061 18.9352 17.4889 18.9873 17.3848C19.0394 17.2806 19.111 17.1911 19.2021 17.1162C19.29 17.0446 19.3926 16.9893 19.5098 16.9502C19.6302 16.9111 19.7588 16.8916 19.8955 16.8916C20.0615 16.8916 20.2064 16.9144 20.3301 16.96C20.457 17.0055 20.5612 17.069 20.6426 17.1504C20.724 17.235 20.7842 17.3359 20.8232 17.4531C20.8656 17.5671 20.8867 17.694 20.8867 17.834C20.8867 17.9772 20.8656 18.1107 20.8232 18.2344C20.7842 18.3548 20.724 18.4574 20.6426 18.542C20.5547 18.6396 20.4391 18.7161 20.2959 18.7715C20.1559 18.8236 19.9883 18.8496 19.793 18.8496H19.0557Z" fill="currentColor"/>
</g>
<defs>
<clipPath id="clip0_1_184">
<rect width="24" height="24" fill="white"/>
</clipPath>
</defs>
</svg>
