<svg width="32" height="32" viewBox="0 0 32 32" fill="none" xmlns="http://www.w3.org/2000/svg">
  <rect width="32" height="32" rx="4" fill="url(#paint0_radial_2517_7807)"/>
  <g opacity="0.5">
    <path d="M9.14551 23.0666L15.9991 11.2046L22.8527 23.0666H21.8303L15.9991 13.0696L10.1679 23.0666H9.14551Z" fill="white"/>
    <path d="M11.9497 23.0666H13.1167L15.9825 18.0842L18.8687 23.0666H19.9956L15.9727 16.1028L11.9497 23.0666Z" fill="white"/>
  </g>
  <path d="M22.5439 17.3278L22.6839 17.2319C23.6288 16.5812 24.3131 15.6086 24.6128 14.4951C24.9505 13.2368 24.7782 11.9237 24.1271 10.7965C23.476 9.6683 22.4245 8.86204 21.1663 8.52544C20.7512 8.41389 20.3243 8.35714 19.8994 8.35714C19.1905 8.35714 18.4738 8.51957 17.8247 8.82583L17.6729 8.89726L15.9996 6L5.59961 24H26.3996L22.5449 17.3278H22.5439ZM18.2741 9.66047C18.7822 9.42759 19.3432 9.30431 19.8984 9.30431C20.242 9.30431 20.5857 9.34932 20.9225 9.43933C21.932 9.70842 22.7789 10.3571 23.3057 11.2661C23.8305 12.1732 23.9695 13.2319 23.6973 14.2446C23.4574 15.1389 22.9336 15.8924 22.1836 16.4227L22.0681 16.5039L18.1468 9.71722L18.2731 9.65949L18.2741 9.66047ZM15.9996 7.86497L24.7821 23.0665H7.21708L15.9996 7.86497Z" fill="white"/>
  <defs>
    <radialGradient id="paint0_radial_2517_7807" cx="0" cy="0" r="1" gradientUnits="userSpaceOnUse" gradientTransform="translate(1.01131 29.8671) scale(48.8124)">
      <stop offset="0.333333" stop-color="#472F64"/>
      <stop offset="1" stop-color="#A86FEF"/>
    </radialGradient>
  </defs>
</svg>
